<svg width="18" height="13" viewBox="0 0 18 13" fill="none" xmlns="http://www.w3.org/2000/svg">
<path d="M16.571 5.54905C16.8193 5.89688 16.9434 6.07161 16.9434 6.32881C16.9434 6.58682 16.8193 6.76074 16.571 7.10857C15.4557 8.67299 12.6069 12.0443 8.77832 12.0443C4.94892 12.0443 2.10095 8.67217 0.985607 7.10857C0.73739 6.76074 0.613281 6.58601 0.613281 6.32881C0.613281 6.07079 0.73739 5.89688 0.985607 5.54905C2.10095 3.98463 4.94973 0.613281 8.77832 0.613281C12.6077 0.613281 15.4557 3.98544 16.571 5.54905Z" stroke="#28819C" stroke-width="1.22476"/>
<path d="M11.2271 6.32842C11.2271 5.67877 10.9691 5.05572 10.5097 4.59635C10.0503 4.13698 9.42729 3.87891 8.77764 3.87891C8.12799 3.87891 7.50494 4.13698 7.04557 4.59635C6.5862 5.05572 6.32812 5.67877 6.32812 6.32842C6.32812 6.97807 6.5862 7.60111 7.04557 8.06048C7.50494 8.51986 8.12799 8.77793 8.77764 8.77793C9.42729 8.77793 10.0503 8.51986 10.5097 8.06048C10.9691 7.60111 11.2271 6.97807 11.2271 6.32842Z" stroke="#28819C" stroke-width="1.22476"/>
</svg>
