<svg width="88" height="84" viewBox="0 0 88 84" fill="none" xmlns="http://www.w3.org/2000/svg">
<path d="M17.7809 37.0364C12.0193 32.8066 8.84403 27.1949 8.90239 19.9914C8.94749 14.322 11.1306 9.50226 15.2688 5.59504C17.2297 3.74771 19.5414 2.30285 22.0705 1.34396C24.5996 0.385068 27.2958 -0.06885 30.0034 0.00844542C32.711 0.0857409 35.3762 0.692719 37.8451 1.79429C40.314 2.89587 42.5375 4.4702 44.3873 6.42631C52.852 15.4208 51.462 30.0427 40.9388 37.0783L44.9868 39.1499L40.9441 43.5292C33.2089 39.5407 25.3331 39.3125 17.6722 43.7154C10.0112 48.1182 6.26563 54.965 5.8916 63.6868H0C0.626032 51.2859 6.5866 42.4803 17.7809 37.0364ZM44.0292 20.2904C44.0308 17.4292 43.1744 14.6318 41.5683 12.2516C39.9622 9.8714 37.6785 8.01519 35.0056 6.91752C32.3328 5.81986 29.3908 5.53 26.5514 6.08456C23.712 6.63913 21.1026 8.01324 19.0528 10.0333C17.0031 12.0533 15.6051 14.6286 15.0353 17.4338C14.4656 20.2389 14.7498 23.1481 15.8519 25.7937C16.9541 28.4393 18.8248 30.7025 21.2276 32.2975C23.6304 33.8925 26.4576 34.7477 29.3519 34.755C31.2774 34.7615 33.1853 34.3922 34.9661 33.6681C36.7469 32.9441 38.3655 31.8796 39.7291 30.5357C41.0928 29.1918 42.1746 27.595 42.9125 25.8369C43.6504 24.0787 44.0299 22.1939 44.0292 20.2904Z" fill="#6A7282"/>
<path d="M64.5034 84.0001C51.6193 84.0001 41.0988 73.5345 41.1094 60.7403C41.1226 48.0405 51.7068 37.6405 64.6068 37.6641C77.5068 37.6877 88.0141 48.1376 87.9982 60.9894C87.9822 73.6158 77.3821 84.0027 64.5034 84.0001ZM82.1463 60.8216C82.1463 51.3 74.2016 43.4489 64.567 43.4358C54.9325 43.4227 46.9877 51.2686 46.9612 60.8032C46.9347 70.3379 54.9192 78.2415 64.575 78.2231C74.2307 78.2048 82.149 70.3379 82.1463 60.8216Z" fill="#28819C"/>
<path d="M52.9766 59.8965C54.2552 58.6247 55.5815 57.3162 56.9078 56.0103L63.5767 62.6526L73.2881 53.0156C74.6808 54.4133 76.0071 55.7454 77.2963 57.0356L63.6854 70.4749L52.9766 59.8965Z" fill="#6A7282"/>
</svg>
