<svg width="16" height="14" viewBox="0 0 16 14" fill="none" xmlns="http://www.w3.org/2000/svg">
<path d="M0 1.75C0 0.784766 0.784766 0 1.75 0H6.125V3.5C6.125 3.98398 6.51602 4.375 7 4.375H10.5V5.66016L7.9625 6.67461C7.38008 6.90703 7 7.47031 7 8.09648C7 9.64414 7.5168 12.1434 9.57578 13.7922C9.32969 13.9234 9.04805 14 8.75 14H1.75C0.784766 14 0 13.2152 0 12.25V1.75ZM10.5 3.5H7V0L10.5 3.5ZM11.5691 6.17148C11.725 6.10859 11.9 6.10859 12.0559 6.17148L15.3371 7.48398C15.5859 7.58516 15.75 7.82578 15.75 8.09375C15.75 9.82461 15.0418 12.7094 12.0641 13.9508C11.9027 14.0191 11.7195 14.0191 11.5582 13.9508C8.5832 12.7094 7.875 9.82461 7.875 8.09375C7.875 7.82578 8.03906 7.58516 8.28789 7.48398L11.5691 6.17148ZM14.4211 8.53125L11.8125 7.48672V12.6246C13.6773 11.7223 14.3145 9.91758 14.4211 8.53125Z" fill="#4B5563"/>
</svg>
