<svg width="16" height="13" viewBox="0 0 16 13" fill="none" xmlns="http://www.w3.org/2000/svg">
<path d="M14.4375 3.5V10.5C14.4375 10.7406 14.2406 10.9375 14 10.9375H8.75C8.75 9.72891 7.77109 8.75 6.5625 8.75H4.8125C3.60391 8.75 2.625 9.72891 2.625 10.9375H1.75C1.50937 10.9375 1.3125 10.7406 1.3125 10.5V3.5H14.4375ZM1.75 0C0.784766 0 0 0.784766 0 1.75V10.5C0 11.4652 0.784766 12.25 1.75 12.25H14C14.9652 12.25 15.75 11.4652 15.75 10.5V1.75C15.75 0.784766 14.9652 0 14 0H1.75ZM7.4375 6.125C7.4375 5.15915 6.65335 4.375 5.6875 4.375C4.72165 4.375 3.9375 5.15915 3.9375 6.125C3.9375 7.09085 4.72165 7.875 5.6875 7.875C6.65335 7.875 7.4375 7.09085 7.4375 6.125ZM10.2812 4.8125C9.91758 4.8125 9.625 5.10508 9.625 5.46875Cnan nan 9.91758 6.125 10.2812 6.125H12.4688C12.8324 6.125 13.125 5.83242 13.125 5.46875Cnan nan 12.8324 4.8125 12.4688 4.8125H10.2812ZM10.2812 7.4375C9.91758 7.4375 9.625 7.73008 9.625 8.09375Cnan nan 9.91758 8.75 10.2812 8.75H12.4688C12.8324 8.75 13.125 8.45742 13.125 8.09375Cnan nan 12.8324 7.4375 12.4688 7.4375H10.2812Z" fill="#2563EB"/>
</svg>
