<svg width="13" height="14" viewBox="0 0 13 14" fill="none" xmlns="http://www.w3.org/2000/svg">
<path d="M0 1.75C0 0.784766 0.784766 0 1.75 0H10.5C11.4652 0 12.25 0.784766 12.25 1.75V12.25C12.25 13.2152 11.4652 14 10.5 14H1.75C0.784766 14 0 13.2152 0 12.25V1.75ZM5.00391 7.62344C4.24102 7.2625 3.68047 6.54609 3.53555 5.6875H4.60469C4.64844 6.51875 4.81523 7.15859 5.00391 7.62344ZM6.1332 7.875H6.125H6.1168C6.05117 7.7793 5.96094 7.63164 5.86797 7.42383C5.70391 7.05195 5.52891 6.48594 5.47969 5.6875H6.76758C6.71836 6.48594 6.54609 7.05195 6.3793 7.42383C6.28633 7.63164 6.19609 7.7793 6.13047 7.875H6.1332ZM7.24609 7.62344C7.43203 7.15586 7.59883 6.51875 7.64531 5.6875H8.71445C8.56953 6.54609 8.00898 7.2625 7.24609 7.62344ZM7.64531 4.8125C7.60156 3.98125 7.43477 3.34141 7.24609 2.87656C8.00898 3.2375 8.56953 3.95391 8.71445 4.8125H7.64531ZM6.1168 2.625H6.125H6.1332C6.19883 2.7207 6.28906 2.86836 6.38203 3.07617C6.54609 3.44805 6.72109 4.01406 6.77031 4.8125H5.48242C5.53164 4.01406 5.70391 3.44805 5.8707 3.07617C5.96367 2.86836 6.05391 2.7207 6.11953 2.625H6.1168ZM5.00391 2.87656C4.81797 3.34414 4.65117 3.98125 4.60469 4.8125H3.53555C3.68047 3.95391 4.24102 3.2375 5.00391 2.87656ZM9.625 5.25C9.625 3.3183 8.0567 1.75 6.125 1.75C4.1933 1.75 2.625 3.3183 2.625 5.25C2.625 7.1817 4.1933 8.75 6.125 8.75C8.0567 8.75 9.625 7.1817 9.625 5.25ZM3.0625 10.5C2.82188 10.5 2.625 10.6969 2.625 10.9375Cnan nan 2.82188 11.375 3.0625 11.375H9.1875C9.42813 11.375 9.625 11.1781 9.625 10.9375Cnan nan 9.42813 10.5 9.1875 10.5H3.0625Z" fill="#EA580C"/>
</svg>
