<svg
  width="40"
  height="37"
  viewBox="0 0 40 37"
  xmlns="http://www.w3.org/2000/svg"
>
  <path
    d="M13.125 2.625C14.4229 2.625 15.6917 3.00988 16.7709 3.73098C17.8501 4.45208 18.6913 5.477 19.188 6.67614C19.6847 7.87528 19.8146 9.19478 19.5614 10.4678C19.3082 11.7408 18.6832 12.9101 17.7654 13.8279C16.8476 14.7457 15.6783 15.3707 14.4053 15.6239C13.1323 15.8771 11.8128 15.7472 10.6136 15.2505C9.4145 14.7538 8.38958 13.9126 7.66848 12.8334C6.94738 11.7542 6.5625 10.4854 6.5625 9.1875C6.5625 7.44702 7.2539 5.77782 8.48461 4.54711C9.71532 3.3164 11.3845 2.625 13.125 2.625ZM13.125 0C11.3079 0 9.53158 0.538838 8.0207 1.54837C6.50982 2.55791 5.33224 3.9928 4.63686 5.6716C3.94148 7.35039 3.75953 9.19769 4.11404 10.9799C4.46854 12.7621 5.34356 14.3991 6.62846 15.684C7.91335 16.9689 9.55041 17.844 11.3326 18.1985C13.1148 18.553 14.9621 18.371 16.6409 17.6756C18.3197 16.9803 19.7546 15.8027 20.7641 14.2918C21.7737 12.7809 22.3125 11.0046 22.3125 9.1875C22.3125 6.75082 21.3445 4.41395 19.6215 2.69096C17.8986 0.967966 15.5617 0 13.125 0ZM26.25 36.75H23.625V30.1875C23.625 28.447 22.9336 26.7778 21.7029 25.5471C20.4722 24.3164 18.803 23.625 17.0625 23.625H9.1875C7.44702 23.625 5.77782 24.3164 4.54711 25.5471C3.3164 26.7778 2.625 28.447 2.625 30.1875V36.75H0V30.1875C0 27.7508 0.967966 25.4139 2.69096 23.691C4.41395 21.968 6.75082 21 9.1875 21H17.0625C19.4992 21 21.8361 21.968 23.559 23.691C25.282 25.4139 26.25 27.7508 26.25 30.1875V36.75ZM26.25 2.625H39.375V5.25H26.25V2.625ZM26.25 9.1875H39.375V11.8125H26.25V9.1875ZM26.25 15.75H35.4375V18.375H26.25V15.75Z"
    fill="currentColor"
  />
</svg>
