<svg width="18" height="16" viewBox="0 0 18 16" fill="none" xmlns="http://www.w3.org/2000/svg">
<path d="M8.26562 0.161719C8.73125 -0.0539062 9.26875 -0.0539062 9.73438 0.161719L16.5656 3.31797C16.8313 3.43984 17 3.70547 17 3.99922C17 4.29297 16.8313 4.55859 16.5656 4.68047L9.73438 7.83672C9.26875 8.05234 8.73125 8.05234 8.26562 7.83672L1.43437 4.68047C1.16875 4.55547 1 4.28984 1 3.99922C1 3.70859 1.16875 3.43984 1.43437 3.31797L8.26562 0.161719ZM14.9031 6.54922L16.5656 7.31797C16.8313 7.43984 17 7.70547 17 7.99922Cnan nan 16.8313 8.55859 16.5656 8.68047L9.73438 11.8367C9.26875 12.0523 8.73125 12.0523 8.26562 11.8367L1.43437 8.68047C1.16875 8.55547 1 8.28984 1 7.99922C1 7.70859 1.16875 7.43984 1.43437 7.31797L3.09687 6.54922L7.84688 8.74297C8.57812 9.08047 9.42188 9.08047 10.1531 8.74297L14.9031 6.54922ZM10.1531 12.743L14.9031 10.5492L16.5656 11.318C16.8313 11.4398 17 11.7055 17 11.9992Cnan nan 16.8313 12.5586 16.5656 12.6805L9.73438 15.8367C9.26875 16.0523 8.73125 16.0523 8.26562 15.8367L1.43437 12.6805C1.16875 12.5555 1 12.2898 1 11.9992C1 11.7086 1.16875 11.4398 1.43437 11.318L3.09687 10.5492L7.84688 12.743C8.57812 13.0805 9.42188 13.0805 10.1531 12.743Z" fill="#187FC3"/>
</svg>
