<svg width="41" height="39" viewBox="0 0 41 39" fill="none" xmlns="http://www.w3.org/2000/svg">
<path d="M8.28429 17.1955C5.5999 15.2316 4.12052 12.6262 4.14771 9.28174C4.16872 6.64952 5.18587 4.41176 7.11388 2.5977C8.02747 1.74001 9.10454 1.06918 10.2829 0.623982C11.4612 0.178782 12.7174 -0.0319661 13.9789 0.00392109C15.2403 0.0398083 16.4821 0.32162 17.6324 0.833064C18.7827 1.34451 19.8186 2.07545 20.6804 2.98364C24.6242 7.15965 23.9766 13.9484 19.0738 17.2149L20.9598 18.1768L19.0762 20.21C15.4723 18.3582 11.8029 18.2522 8.23362 20.2964C4.66432 22.3406 2.91921 25.5195 2.74495 29.5689H0C0.291674 23.8113 3.06876 19.723 8.28429 17.1955ZM20.5136 9.42054C20.5143 8.09214 20.1153 6.79335 19.367 5.68825C18.6188 4.58315 17.5547 3.72134 16.3094 3.21171C15.0641 2.70208 13.6934 2.5675 12.3705 2.82498C11.0476 3.08245 9.83188 3.72043 8.87689 4.6583C7.92191 5.59617 7.27054 6.79184 7.0051 8.09424C6.73966 9.39664 6.87206 10.7473 7.38556 11.9756C7.89906 13.2039 8.77063 14.2547 9.89013 14.9953C11.0096 15.7358 12.3268 16.1329 13.6753 16.1362C14.5724 16.1393 15.4613 15.9678 16.291 15.6316C17.1207 15.2955 17.8748 14.8012 18.5102 14.1773C19.1455 13.5534 19.6495 12.812 19.9933 11.9957C20.3371 11.1794 20.5139 10.3043 20.5136 9.42054Z" fill="#D3D3D3"/>
<path d="M30.0518 39.0014C24.049 39.0014 19.1474 34.1424 19.1523 28.2023C19.1585 22.3059 24.0898 17.4773 30.1 17.4883C36.1102 17.4993 41.0057 22.351 40.9983 28.3179C40.9908 34.1802 36.0521 39.0026 30.0518 39.0014ZM38.2718 28.24C38.2718 23.8193 34.5703 20.1741 30.0815 20.168C25.5927 20.1619 21.8911 23.8047 21.8788 28.2315C21.8664 32.6583 25.5865 36.3278 30.0852 36.3193C34.5839 36.3108 38.2731 32.6583 38.2718 28.24Z" fill="#48C1F0"/>
<path d="M24.6836 27.808C25.2793 27.2175 25.8973 26.61 26.5152 26.0037L29.6223 29.0876L34.1469 24.6133C34.7958 25.2622 35.4137 25.8807 36.0144 26.4797L29.673 32.7194L24.6836 27.808Z" fill="#D3D3D3"/>
</svg>
